<?xml version="1.0" standalone="no"?>
<!DOCTYPE svg PUBLIC "-//W3C//DTD SVG 20010904//EN"
 "http://www.w3.org/TR/2001/REC-SVG-20010904/DTD/svg10.dtd">
<svg version="1.0" xmlns="http://www.w3.org/2000/svg"
 width="797.000000pt" height="229.000000pt" viewBox="0 0 797.000000 229.000000"
 preserveAspectRatio="xMidYMid meet">
<metadata>
Created by potrace 1.16, written by Peter Selinger 2001-2019
</metadata>
<g transform="translate(0.000000,229.000000) scale(0.100000,-0.100000)"
fill="red" stroke="none">
<path d="M3814 2010 c-6 -6 -57 -18 -115 -26 -129 -19 -249 -47 -354 -80 -161
-53 -355 -137 -355 -155 0 -6 -5 -7 -10 -4 -6 3 -13 0 -16 -9 -3 -8 -12 -17
-20 -20 -10 -4 -12 -2 -8 6 4 6 -7 3 -24 -7 -17 -10 -29 -22 -26 -27 3 -5 2
-8 -3 -7 -22 4 -34 -2 -27 -13 4 -7 4 -10 -1 -6 -11 10 -67 -21 -60 -32 3 -6
-1 -7 -9 -4 -10 4 -16 1 -16 -9 0 -8 -8 -14 -17 -13 -10 0 -18 -6 -18 -14 0
-8 -9 -15 -20 -15 -11 0 -20 -7 -20 -15 -1 -8 -7 -14 -14 -12 -18 4 -42 -18
-34 -31 3 -5 2 -7 -4 -4 -13 8 -85 -52 -77 -64 3 -5 1 -8 -4 -7 -10 3 -112
-82 -112 -95 0 -4 5 -5 12 -1 7 5 8 3 4 -5 -5 -7 -11 -10 -14 -6 -7 6 -92 -75
-92 -88 0 -4 6 -5 13 -1 8 5 8 3 -2 -9 -7 -9 -17 -14 -22 -12 -7 5 -30 -27
-33 -45 -1 -3 -4 -4 -8 -3 -5 2 -8 -6 -8 -17 0 -13 -10 -25 -27 -31 -16 -7
-23 -13 -16 -16 16 -6 -10 -48 -30 -48 -6 0 -11 -9 -11 -18 1 -10 -1 -16 -4
-13 -7 7 -32 -13 -32 -26 0 -5 5 -6 12 -2 7 4 8 3 4 -5 -4 -6 -11 -9 -16 -6
-4 3 -13 -2 -20 -10 -10 -12 -10 -15 1 -15 9 -1 4 -9 -11 -22 -14 -11 -24 -25
-22 -30 1 -5 -6 -12 -15 -15 -24 -9 -47 -33 -39 -40 8 -8 -33 -53 -48 -53 -12
0 -90 -82 -119 -124 -11 -15 -21 -25 -24 -22 -7 7 -48 -22 -48 -34 0 -6 -4
-10 -10 -11 -20 -2 -45 -20 -40 -29 3 -5 0 -12 -6 -16 -8 -4 -9 -3 -5 4 11 19
-9 14 -27 -6 -10 -10 -14 -22 -10 -27 5 -4 3 -5 -4 -1 -7 4 -17 -2 -23 -14 -6
-11 -15 -20 -21 -20 -6 0 -7 5 -3 12 4 7 3 8 -5 4 -6 -4 -9 -11 -6 -16 3 -5 1
-11 -5 -15 -5 -3 -10 0 -11 7 0 7 -4 3 -9 -9 -5 -13 -15 -24 -22 -24 -7 -1
-20 -2 -28 -3 -8 0 -14 -7 -12 -14 1 -8 -2 -11 -8 -7 -14 9 -52 -14 -44 -27 4
-7 3 -8 -4 -4 -12 7 -55 -16 -85 -46 -10 -10 -22 -16 -27 -13 -11 7 -91 -30
-83 -39 4 -4 -1 -4 -11 0 -15 6 -17 4 -11 -6 5 -9 4 -11 -3 -6 -6 4 -45 -7
-86 -23 -41 -16 -93 -35 -115 -41 -23 -6 -41 -15 -41 -19 0 -5 -9 -7 -20 -4
-11 3 -20 1 -20 -4 0 -5 -8 -10 -17 -10 -46 1 -74 -4 -70 -10 3 -5 -16 -9 -41
-10 -26 -1 -48 -6 -50 -11 -1 -5 -16 -6 -32 -4 -17 2 -30 0 -30 -6 0 -7 -14
-9 -35 -5 -23 4 -35 2 -35 -6 0 -9 -17 -10 -60 -5 -42 5 -60 3 -60 -5 0 -8
-84 -11 -300 -11 l-300 0 0 -65 0 -65 3985 0 3985 0 0 70 0 70 -169 0 c-93 0
-178 3 -188 6 -15 5 -15 4 -3 -5 11 -8 -2 -11 -52 -11 -39 0 -68 4 -68 10 0 6
-19 10 -42 10 -126 0 -388 53 -553 110 -49 18 -99 32 -110 33 -11 1 -25 8 -31
16 -6 8 -18 12 -28 8 -9 -4 -15 -3 -12 2 3 4 -31 25 -77 45 -45 20 -108 53
-139 72 -32 19 -63 32 -70 28 -7 -4 -8 -3 -4 4 8 13 -30 36 -44 27 -6 -4 -9
-1 -8 7 2 7 -5 12 -15 12 -10 -1 -16 0 -13 3 8 8 -41 44 -55 41 -7 -2 -13 4
-14 12 0 8 -8 14 -17 14 -10 -1 -16 2 -15 7 1 5 -29 34 -68 64 -38 31 -111 97
-161 146 -50 49 -96 89 -101 89 -15 0 -36 27 -24 32 12 4 -77 104 -91 100 -5
-1 -6 2 -3 8 9 14 -24 52 -38 43 -6 -3 -7 -1 -3 5 9 15 -33 72 -59 82 -11 4
-20 16 -20 26 0 11 -5 18 -12 17 -6 -1 -17 4 -23 12 -10 12 -10 15 0 15 9 0 7
6 -5 20 -10 11 -21 17 -25 15 -10 -6 -33 22 -36 42 -3 20 -42 61 -139 145 -44
38 -87 75 -95 82 -148 128 -639 387 -683 359 -6 -4 -7 -1 -2 7 6 10 1 12 -18
8 -15 -3 -28 -1 -30 5 -1 5 -17 10 -34 11 -17 0 -29 5 -26 10 3 5 -6 7 -21 4
-14 -3 -26 -2 -26 2 0 11 -218 50 -315 56 -49 3 -128 10 -173 16 -61 7 -87 7
-95 -1 -14 -14 -64 -15 -72 -1 -8 13 -18 13 -31 0z"/>
</g>
</svg>
